<svg xmlns="http://www.w3.org/2000/svg" xmlns:xlink="http://www.w3.org/1999/xlink" width="760" height="320.52"><rect width="760" height="320.52" rx="5" ry="5" class="a"/><svg y="0%" x="0%"><circle cx="20" cy="20" r="6" fill="#ff5f58"/><circle cx="40" cy="20" r="6" fill="#ffbd2e"/><circle cx="60" cy="20" r="6" fill="#18c132"/></svg><svg height="260.52" viewBox="0 0 72 26.052" width="720" x="15" xmlns="http://www.w3.org/2000/svg" xmlns:xlink="http://www.w3.org/1999/xlink" y="50"><style>@keyframes j{0%{transform:translateX(-72px)}to{transform:translateX(-144px)}}.a{fill:#fff}.f,.g,.l{fill:#33bbc8;white-space:pre}.g,.l{fill:#000}.l{fill:#25bc24}</style><g font-family="Monaco,Consolas,Menlo,'Bitstream Vera Sans Mono','Powerline Symbols',monospace" font-size="1.67"><defs><symbol id="1"><text y="1.67" class="f">$</text><text x="2.004" y="1.67" class="g">cd</text><text x="5.01" y="1.67" class="g">MacAgent/backend</text></symbol><symbol id="a"><path fill="transparent" d="M0 0h72v13H0z"/></symbol><symbol id="b"><path fill="#929292" d="M0 0h1.102v2.171H0z"/></symbol></defs><path class="a" d="M0 0h72v26.052H0z"/><g style="animation-duration:.5s;animation-iteration-count:infinite;animation-name:j;animation-timing-function:steps(1,end)"><svg width="216"><svg><use xlink:href="#a"/><use xlink:href="#b" x="-.004"/></svg><svg x="72"><use xlink:href="#a"/><use xlink:href="#b" x="-.004" y="2.146"/><use xlink:href="#1"/></svg><svg x="144"><use xlink:href="#a"/><use xlink:href="#b" x="-.004" y="15.172"/><use xlink:href="#1"/><text y="3.841" class="f">$</text><text x="2.004" y="3.841" class="g">pip</text><text x="6.012" y="3.841" class="g">install</text><text x="14.028" y="3.841" class="g">-r</text><text x="17.034" y="3.841" class="g">requirements.txt</text><text y="6.012" class="l">&gt;</text><text x="2.004" y="6.012" class="g">Successfully</text><text x="15.03" y="6.012" class="g">installed</text><text x="25.05" y="6.012" class="g">fastapi</text><text x="33.066" y="6.012" class="g">uvicorn...</text><text y="8.183" class="f">$</text><text x="2.004" y="8.183" class="g">python</text><text x="9.018" y="8.183" class="g">main.py</text><text y="10.354" class="l">&gt;</text><text x="2.004" y="10.354" class="g">Agent</text><text x="8.016" y="10.354" class="g">backend</text><text x="16.032" y="10.354" class="g">running</text><text x="24.048" y="10.354" class="g">on</text><text x="27.054" y="10.354" class="g">http://127.0.0.1:8765</text><text y="12.525" class="l">&gt;</text><text x="2.004" y="12.525" class="g">WebSocket</text><text x="12.024" y="12.525" class="g">ready</text><text x="18.036" y="12.525" class="g">·</text><text x="20.04" y="12.525" class="g">Chow</text><text x="25.05" y="12.525" class="g">Duck</text><text x="30.06" y="12.525" class="g">initialized</text><text y="14.696" class="f">$</text></svg></svg></g></g></svg></svg>